<?xml version="1.0" standalone="no"?>
<!DOCTYPE svg PUBLIC "-//W3C//DTD SVG 20010904//EN"
 "http://www.w3.org/TR/2001/REC-SVG-20010904/DTD/svg10.dtd">
<svg version="1.0" xmlns="http://www.w3.org/2000/svg"
 width="1280.000000pt" height="435.000000pt" viewBox="0 0 1280.000000 435.000000"
 preserveAspectRatio="xMidYMid meet">

<g transform="translate(0.000000,435.000000) scale(0.100000,-0.100000)"
fill="#000000" stroke="none">
<path d="M0 2175 l0 -2175 6400 0 6400 0 0 2175 0 2175 -6400 0 -6400 0 0
-2175z m6518 1730 c2 -22 9 -43 15 -47 7 -4 87 -8 178 -8 156 0 168 -1 200
-23 41 -27 69 -79 69 -129 0 -36 4 -40 61 -75 178 -109 310 -232 404 -377 135
-209 184 -372 194 -656 l6 -175 75 -20 75 -20 0 -144 0 -144 -85 -29 c-208
-71 -475 -131 -755 -170 -216 -30 -703 -32 -920 -4 -272 35 -525 90 -745 163
l-115 38 -3 146 -3 146 73 19 73 19 6 160 c10 239 44 385 126 550 103 204 275
385 466 490 64 35 67 39 67 73 1 50 32 116 66 139 24 15 56 19 209 23 l180 5
3 40 c4 45 15 56 52 53 21 -3 25 -9 28 -43z m-2230 -2578 l3 -108 28 21 c56
39 153 19 182 -39 7 -14 15 -73 18 -131 6 -97 8 -106 29 -115 42 -18 22 -25
-73 -25 -91 0 -123 11 -71 24 20 5 26 14 32 52 6 45 -1 159 -12 189 -8 20 -51
30 -83 19 -41 -15 -51 -48 -49 -154 3 -88 5 -96 26 -105 42 -18 22 -25 -73
-25 -57 0 -95 4 -95 10 0 6 6 10 14 10 7 0 19 7 26 15 16 19 24 191 15 321 -7
99 -8 104 -31 110 -39 10 -28 22 29 32 85 16 82 20 85 -101z m1222 -52 c0 -91
3 -165 7 -165 13 0 103 94 103 106 0 7 -9 14 -20 16 -12 2 -22 8 -23 13 -3 13
143 19 156 6 6 -6 -2 -15 -24 -24 -19 -9 -51 -32 -72 -52 l-38 -37 47 -66 c58
-83 94 -122 111 -122 7 0 13 -4 13 -10 0 -6 -38 -10 -95 -10 -57 0 -95 4 -95
10 0 6 7 10 15 10 8 0 15 5 15 12 0 8 -44 86 -67 117 -1 2 -9 -2 -18 -9 -15
-13 -21 -74 -9 -104 3 -9 12 -16 20 -16 8 0 14 -4 14 -10 0 -6 -37 -10 -90
-10 -91 0 -109 7 -67 25 22 10 22 12 22 220 0 208 0 210 -22 220 -33 14 -28
23 15 30 20 4 42 8 47 10 6 2 20 4 33 4 22 1 22 1 22 -164z m-750 21 c0 -32 3
-35 33 -38 20 -2 32 -8 32 -18 0 -10 -12 -16 -32 -18 l-33 -3 0 -110 c0 -130
9 -154 52 -145 37 7 34 -13 -6 -32 -35 -18 -87 -8 -112 19 -17 19 -19 36 -17
145 1 117 0 123 -20 126 -34 5 -30 25 8 44 20 9 43 28 52 40 23 36 43 30 43
-10z m1574 0 c6 -30 11 -35 39 -38 43 -4 44 -32 1 -36 l-32 -3 -4 -102 c-6
-125 3 -153 50 -149 33 2 41 -8 20 -25 -43 -34 -132 -19 -149 24 -5 13 -9 76
-9 139 0 107 -1 114 -20 114 -29 0 -24 27 8 44 15 8 38 26 51 40 32 34 37 33
45 -8z m1256 0 c0 -32 3 -35 33 -38 20 -2 32 -8 32 -18 0 -10 -12 -16 -32 -18
l-33 -3 0 -110 c0 -130 9 -154 52 -145 21 4 28 2 26 -7 -8 -22 -58 -39 -94
-33 -59 12 -64 23 -64 162 0 124 0 125 -25 134 -34 13 -31 27 8 44 18 7 41 25
50 40 25 38 47 34 47 -8z m-3577 -42 c35 -6 37 -8 37 -45 0 -47 -9 -49 -38 -9
-25 33 -61 40 -82 15 -20 -24 -3 -49 55 -84 68 -42 95 -74 95 -115 0 -69 -65
-107 -147 -87 -25 7 -53 9 -64 6 -17 -6 -19 -1 -19 44 0 62 15 73 36 27 21
-43 64 -64 99 -48 46 21 27 53 -74 125 -49 35 -66 73 -50 115 20 55 63 70 152
56z m1017 -125 c4 -106 8 -130 24 -148 32 -35 78 -26 101 20 10 19 15 59 15
124 0 94 0 96 -27 106 -42 16 -14 30 53 27 l59 -3 5 -145 c5 -138 6 -145 28
-155 34 -15 27 -22 -29 -28 -59 -7 -69 -4 -69 24 l0 21 -32 -20 c-49 -30 -100
-37 -140 -18 -51 24 -67 59 -69 154 -3 113 -7 132 -36 143 -42 16 -15 30 50
27 l62 -3 5 -126z m1020 116 c38 -20 50 -64 50 -182 0 -85 2 -93 19 -93 31 0
34 -18 6 -36 -31 -20 -71 -11 -89 21 -6 11 -12 22 -14 24 -1 3 -15 -7 -30 -21
-53 -49 -142 -42 -161 14 -18 52 2 77 102 126 94 46 105 62 71 110 -22 32 -61
29 -82 -8 -19 -33 -40 -44 -66 -34 -34 13 -12 70 34 87 32 12 132 7 160 -8z
m550 -110 c6 -128 17 -161 55 -171 67 -17 97 35 93 163 -3 80 -5 89 -25 98
-13 5 -23 16 -23 23 0 10 16 12 63 10 l62 -3 5 -140 c3 -77 9 -146 13 -152 5
-7 17 -13 28 -13 10 0 19 -4 19 -10 0 -5 -11 -10 -24 -10 -13 0 -37 -3 -54 -6
-27 -5 -33 -3 -43 19 -12 26 -12 26 -36 7 -34 -27 -93 -34 -136 -16 -57 24
-71 55 -77 176 -5 97 -7 106 -27 115 -13 5 -23 16 -23 23 0 10 16 12 63 10
l62 -3 5 -120z m475 95 l7 -30 38 31 c42 34 95 37 114 7 24 -38 -26 -71 -70
-47 -18 9 -27 9 -37 0 -23 -18 -38 -91 -35 -161 3 -64 4 -65 36 -75 58 -17 34
-25 -73 -25 -99 0 -135 10 -81 24 28 7 37 39 35 130 -2 88 -11 120 -37 131
-32 14 -27 23 21 33 69 16 75 15 82 -18z m919 11 c35 -24 55 -56 56 -92 0 -34
-17 -39 -134 -39 l-89 0 6 -45 c8 -54 23 -80 54 -94 35 -16 64 -13 108 9 47
24 45 24 45 6 0 -20 -57 -52 -105 -60 -80 -11 -153 25 -181 91 -27 63 -12 156
32 195 58 51 154 64 208 29z m446 -119 c4 -117 7 -135 24 -148 30 -21 60 -17
87 12 22 24 24 33 24 127 0 96 -1 103 -22 112 -45 19 -26 35 42 35 l65 0 1
-127 c1 -150 7 -177 37 -181 30 -4 28 -22 -2 -22 -13 0 -37 -3 -55 -6 -27 -6
-32 -3 -41 21 l-10 26 -25 -19 c-36 -29 -95 -37 -138 -18 -58 24 -70 53 -75
178 -4 105 -6 110 -29 119 -42 16 -15 30 50 27 l62 -3 5 -133z m592 110 c21
-20 23 -34 27 -138 3 -112 4 -116 28 -125 20 -7 23 -12 14 -23 -29 -35 -111
-21 -111 19 0 20 -5 19 -35 -9 -63 -59 -165 -34 -165 41 0 43 31 73 108 104
74 29 82 36 82 68 0 66 -68 84 -100 26 -11 -20 -24 -30 -40 -30 -30 0 -49 29
-34 53 20 32 56 43 131 40 60 -3 77 -7 95 -26z m-1664 -234 c19 -19 14 -56 -9
-68 -16 -9 -26 -8 -45 5 -27 17 -29 27 -14 56 12 21 50 25 68 7z m856 -10 c26
-37 -14 -79 -55 -58 -19 10 -27 59 -12 73 14 15 53 6 67 -15z m-3954 -414 c0
-72 -3 -95 -12 -92 -9 3 -14 34 -16 96 -2 77 0 92 13 92 12 0 15 -16 15 -96z
m1120 1 c0 -78 -3 -95 -15 -95 -12 0 -15 17 -15 95 0 78 3 95 15 95 12 0 15
-17 15 -95z m88 3 c-2 -62 -7 -93 -15 -96 -10 -3 -13 20 -13 92 0 80 3 96 15
96 13 0 15 -15 13 -92z m89 -4 c1 -69 -2 -94 -10 -91 -17 5 -21 187 -3 187 9
0 13 -26 13 -96z m1736 44 c-1 -29 -2 -72 -2 -95 -1 -24 -5 -43 -10 -43 -5 0
-11 43 -13 95 -2 79 -1 95 12 95 12 0 15 -12 13 -52z m-3106 -35 c9 -7 12 -13
6 -13 -6 0 -15 -15 -18 -32 -8 -35 -22 -58 -36 -58 -11 0 10 61 29 83 10 11
11 17 3 17 -6 0 -16 11 -23 25 -8 19 -8 28 3 41 13 16 14 14 17 -17 2 -19 10
-40 19 -46z m2831 -23 c-2 -48 -7 -75 -15 -78 -10 -3 -13 17 -13 76 0 43 3 82
7 86 16 16 24 -16 21 -84z m-2638 0 c0 -64 -3 -80 -15 -80 -12 0 -15 16 -15
80 0 64 3 80 15 80 12 0 15 -16 15 -80z m200 0 c0 -47 -4 -80 -10 -80 -6 0
-10 33 -10 80 0 47 4 80 10 80 6 0 10 -33 10 -80z m362 0 c2 -62 0 -80 -10
-78 -7 2 -13 6 -13 11 1 4 1 39 1 77 0 97 18 88 22 -10z m158 -1 c0 -54 -4
-79 -11 -77 -16 5 -18 158 -1 158 8 0 12 -23 12 -81z m578 1 c2 -65 -1 -80
-13 -80 -12 0 -15 16 -15 80 0 58 3 80 13 80 9 0 13 -23 15 -80z m188 0 c2
-62 -1 -80 -12 -80 -11 0 -14 18 -14 80 0 57 4 80 13 80 8 0 12 -23 13 -80z
m114 0 c0 -64 -3 -80 -15 -80 -12 0 -15 16 -15 80 0 64 3 80 15 80 12 0 15
-16 15 -80z m190 5 c0 -60 3 -76 18 -85 16 -11 16 -11 -1 -6 -10 3 -24 6 -30
6 -8 0 -12 26 -12 80 0 57 4 80 13 80 8 0 12 -22 12 -75z m122 -5 c-2 -44 -7
-80 -12 -80 -5 0 -10 36 -12 80 -2 66 0 80 12 80 12 0 14 -14 12 -80z m208 -1
c0 -60 -3 -80 -12 -77 -9 3 -14 31 -16 81 -2 64 0 77 13 77 12 0 15 -15 15
-81z m360 1 c0 -64 -3 -80 -15 -80 -12 0 -15 16 -15 80 0 64 3 80 15 80 12 0
15 -16 15 -80z m60 70 c0 -5 -2 -10 -4 -10 -3 0 -8 5 -11 10 -3 6 -1 10 4 10
6 0 11 -4 11 -10z m563 -32 c-1 -24 -2 -60 -2 -80 -1 -21 -5 -38 -11 -38 -6 0
-10 33 -10 80 0 57 4 80 13 80 8 0 11 -14 10 -42z m322 -19 c7 -32 -12 -80
-35 -87 -12 -4 -13 -2 -2 9 14 16 16 105 2 114 -5 3 -10 11 -10 17 0 21 39
-24 45 -53z m103 -16 c-2 -50 -7 -78 -15 -81 -10 -3 -13 17 -13 77 0 66 3 81
15 81 13 0 15 -13 13 -77z m107 -3 c0 -58 -3 -80 -12 -80 -9 0 -13 22 -13 80
0 57 4 80 13 80 8 0 12 -23 12 -80z m217 63 c10 -9 18 -30 18 -49 0 -36 -18
-84 -32 -84 -11 0 -10 17 2 25 15 10 12 78 -6 103 -18 26 -8 29 18 5z m151
-50 c15 -38 24 -70 19 -75 -5 -5 -19 16 -32 49 -13 32 -27 62 -32 68 -12 13
-10 25 5 25 6 0 24 -30 40 -67z m107 -13 c0 -100 -17 -106 -22 -7 -4 76 -2 87
13 87 5 0 9 -36 9 -80z m120 0 c0 -47 -4 -80 -10 -80 -6 0 -10 33 -10 80 0 47
4 80 10 80 6 0 10 -33 10 -80z m120 53 c2 -85 0 -107 -14 -121 -24 -25 -27 -9
-6 32 17 34 17 40 5 53 -18 18 -19 35 -3 51 16 16 17 16 18 -15z m80 -53 c0
-84 -15 -111 -21 -37 -5 59 1 117 12 117 5 0 9 -36 9 -80z m-4123 34 c-8 -26
-8 -44 1 -67 14 -37 7 -48 -13 -21 -18 24 -19 78 -3 104 20 31 27 23 15 -16z
m1063 11 c0 -14 -4 -25 -10 -25 -5 0 -10 11 -10 25 0 14 5 25 10 25 6 0 10
-11 10 -25z m852 -24 c-2 -26 1 -58 7 -70 7 -11 8 -21 3 -21 -19 0 -35 32 -35
70 0 32 15 70 28 70 1 0 0 -22 -3 -49z m1071 1 c-3 -29 -1 -58 6 -70 8 -15 8
-22 1 -22 -6 0 -18 16 -27 35 -16 33 -16 37 0 70 9 19 19 35 21 35 3 0 2 -22
-1 -48z m447 16 c-10 -33 -4 -74 13 -95 6 -9 6 -13 -1 -13 -16 0 -42 41 -42
67 0 26 20 73 31 73 4 0 4 -14 -1 -32z m-2364 -53 c13 -20 14 -28 4 -40 -19
-23 -27 -18 -22 16 3 20 0 34 -9 40 -10 6 -10 9 -2 9 7 0 20 -11 29 -25z
m-1300 -28 c17 -48 -2 -50 -22 -2 -17 42 -17 48 -2 43 6 -2 17 -21 24 -41z
m723 26 c6 -11 6 -24 0 -35 -15 -28 -24 -21 -24 17 0 38 9 45 24 18z m1191
-23 c17 -32 18 -40 6 -40 -18 0 -22 6 -31 48 -9 43 0 40 25 -8z m725 5 c0 -16
-5 -30 -10 -32 -7 -2 -11 12 -11 32 0 20 4 34 11 32 5 -2 10 -16 10 -32z m473
-17 c9 -23 9 -28 -3 -28 -13 0 -17 9 -32 65 -5 18 -3 18 9 5 8 -8 20 -27 26
-42z m-861 -10 c-3 -8 -6 -5 -6 6 -1 11 2 17 5 13 3 -3 4 -12 1 -19z m-637
-12 c0 -3 -4 -8 -10 -11 -5 -3 -10 -1 -10 4 0 6 5 11 10 11 6 0 10 -2 10 -4z"/>
<path d="M6110 3763 c-38 -14 -40 -29 -40 -324 l0 -287 -27 -4 c-65 -9 -63
-16 -63 197 0 107 -3 196 -7 198 -17 10 -175 -107 -252 -185 -115 -118 -194
-242 -246 -386 -45 -125 -56 -197 -62 -414 l-6 -207 -76 -23 -76 -24 -3 -69
c-1 -39 1 -75 5 -80 28 -37 481 -145 763 -182 194 -26 726 -26 925 0 220 29
504 91 685 150 l75 25 3 79 3 79 -78 25 -78 24 -5 205 c-6 211 -17 281 -60
404 -65 182 -185 353 -329 470 -77 61 -166 117 -175 109 -3 -4 -6 -93 -6 -199
l0 -192 -30 -4 c-16 -3 -35 -1 -41 3 -9 5 -12 75 -11 250 2 275 -3 324 -30
351 -17 17 -33 18 -181 16 l-162 -3 -3 -467 -2 -468 -40 0 -40 0 -2 468 -3
467 -155 2 c-85 1 -162 -1 -170 -4z m1148 -1375 l-3 -43 -775 0 -775 0 -3 28
c-7 61 -63 57 783 57 l776 0 -3 -42z"/>
<path d="M5951 1069 c-34 -24 -42 -35 -39 -57 2 -22 9 -28 34 -30 40 -4 74 35
74 84 0 43 -14 43 -69 3z"/>
<path d="M7883 1220 c-22 -9 -43 -38 -43 -60 0 -18 124 -9 128 10 6 36 -44 66
-85 50z"/>
<path d="M8919 1075 c-40 -27 -52 -48 -44 -76 6 -19 49 -26 71 -11 31 20 48
112 21 112 -7 0 -29 -11 -48 -25z"/>
</g>
</svg>
